<svg id="Layer_1" data-name="Layer 1" xmlns="http://www.w3.org/2000/svg" xmlns:xlink="http://www.w3.org/1999/xlink" viewBox="0 0 800 800"><defs><style>.cls-1{fill:#1a3590;}.cls-2{fill:url(#linear-gradient);}</style><linearGradient id="linear-gradient" x1="404.56" y1="476.88" x2="395.5" y2="70.13" gradientUnits="userSpaceOnUse"><stop offset="0" stop-color="#5a68fd"/><stop offset="1" stop-color="#52b0f8"/></linearGradient></defs><path class="cls-1" d="M449.29,700.61c-21.83,24.92-47.23,32-77.31,15.43L260.85,602.46c-12.38-24.13-7.3-47.14,4.47-69.72l.55-4.14-.61.23,4.41-4.44-.31.34,4.41-4.45.14.46a143,143,0,0,0,28.28-28.39l4.31-4.9-.29.33,4.4-4.41-.3.32,4.42-4.41-.32.3,4.4-4.41-.3.3,4.38-4.4a1.49,1.49,0,0,1-.15.2l4.2-4.11-.26.11c1.46-1.48,2.93-2.95,4.39-4.42l-.29.32,4.4-4.42-.31.3,4.4-4.41L339,455l4.4-4.42-.31.31q2.2-2.19,4.4-4.4l-.29.32,4.39-4.42-.29.32,4.4-4.42-.31.31,4.4-4.42-.31.31,4.39-4.41-.29.31,4.39-4.41-.29.32c1.46-1.47,2.93-2.94,4.39-4.42l.44.34,3.52-3.24,4.23-5.32-.29.32,4.38-4.41-.29.31,4.39-4.4-.29.31,4.39-4.41-.28.32,4.39-4.41-.3.29,4.39-4.4.14.48,15.42-9.24c-7.24,8.07-14.16,16.46-21.78,24.15C360.42,442.89,326.12,477,292,511.35c-2.66,2.67-7.58,5.11-5.14,9.66.67,1.26,6.24-.22,9.57-.23q80.7-.25,161.41-.45c-6.55,14.25-3.21,29.37-3.5,44.07-.82,42.62-1,85.24-1.37,127.86Q451.13,696.43,449.29,700.61Z"/><path class="cls-2" d="M446.77,521.41q-80.7.21-161.41.45c-3.32,0-8.89,1.49-9.57.23-2.43-4.56,2.49-7,5.14-9.66C315.05,478.1,349.35,444,383.42,409.6c7.62-7.69,14.54-16.08,21.78-24.15,7.33-5,15.65-2.65,23.59-3.18,9.73,9.43,19.1,19.27,29.3,28.16,10.7,9.33,22.27,13.29,33.76.67,8.78-5.51,9.4-14.48,9.42-23.37q.17-69.33,0-138.66c0-8.86-.32-17.89-9.06-23.52-5.73-9.35-15.17-7.73-23.81-7.76-44.19-.16-88.38,0-132.57-.19-14-.07-28-.43-34.38,15.42s3.8,25.87,14,35.16c13.05,11.88,24,24.36,19.84,43.9l.17-.49L231.86,414.07c-14.66,1.35-26.57-3.33-34.91-15.89-.17-75.79-.52-151.58-.31-227.36,0-10.06,3-20.12,4.53-30.18,8.93-10.9,19.32-19.94,32.45-25.48L565.46,115l1.88.78,2-.12,16.28,8.71-.53-.39c9.47,11.75,18.37,23.81,18.31,39.89q-.7,162.26-1.47,324.51-8.62,12.12-17.24,24.23c-22.53,12.83-47.22,8.08-71.21,8.6C491.28,521.65,469,521.36,446.77,521.41Z"/></svg>